<svg width="42" height="42" viewBox="0 0 42 42" fill="none" xmlns="http://www.w3.org/2000/svg">
<circle cx="21" cy="21" r="21" fill="#0072DB"/>
<path d="M15.0141 22.5115C14.4302 22.5115 13.9297 22.4167 13.5126 22.2271C13.1031 22.0375 12.7657 21.7911 12.5002 21.4877L13.2737 20.4299C13.4937 20.6422 13.7363 20.8166 14.0017 20.9531C14.2672 21.0896 14.5515 21.1579 14.8549 21.1579C15.2113 21.1579 15.4957 21.0858 15.708 20.9417C15.9203 20.7901 16.0265 20.5777 16.0265 20.3047C16.0265 20.0924 15.9734 19.9104 15.8672 19.7587C15.7611 19.5995 15.5677 19.4782 15.2871 19.3947C15.0065 19.3113 14.6046 19.2696 14.0814 19.2696V18.0866C14.7335 18.0866 15.1809 17.9994 15.4236 17.825C15.6663 17.643 15.7876 17.4079 15.7876 17.1197C15.7876 16.8695 15.7118 16.6761 15.5601 16.5396C15.4084 16.3955 15.1885 16.3235 14.9004 16.3235C14.6425 16.3235 14.4074 16.3804 14.1951 16.4941C13.9904 16.6079 13.7742 16.7633 13.5467 16.9605L12.705 15.9367C13.0387 15.6486 13.3913 15.4249 13.7629 15.2656C14.1344 15.0988 14.5402 15.0154 14.98 15.0154C15.7232 15.0154 16.3222 15.1898 16.7772 15.5386C17.2398 15.8799 17.4711 16.3652 17.4711 16.9946C17.4711 17.3662 17.3649 17.6847 17.1526 17.9501C16.9479 18.2155 16.6521 18.4317 16.2654 18.5985V18.644C16.6824 18.7653 17.0237 18.9739 17.2891 19.2696C17.5621 19.5578 17.6986 19.937 17.6986 20.4071C17.6986 20.8545 17.5735 21.2375 17.3232 21.556C17.0806 21.8669 16.7545 22.1058 16.345 22.2726C15.9431 22.4319 15.4994 22.5115 15.0141 22.5115ZM21.3878 19.0421C21.1982 19.0421 21.0048 19.099 20.8076 19.2127C20.618 19.3189 20.4474 19.5009 20.2958 19.7587C20.3716 20.3275 20.5157 20.7218 20.728 20.9417C20.9403 21.1541 21.1716 21.2602 21.4219 21.2602C21.6721 21.2602 21.8845 21.1692 22.0589 20.9872C22.2409 20.7977 22.3319 20.4981 22.3319 20.0886C22.3319 19.7095 22.2409 19.4402 22.0589 19.281C21.8845 19.1217 21.6608 19.0421 21.3878 19.0421ZM21.456 22.5115C20.9934 22.5115 20.5536 22.3902 20.1365 22.1475C19.7194 21.8972 19.3782 21.5105 19.1128 20.9872C18.8549 20.4564 18.726 19.7701 18.726 18.9284C18.726 18.026 18.8625 17.2866 19.1355 16.7102C19.4161 16.1339 19.7763 15.7092 20.2161 15.4362C20.6635 15.1557 21.1413 15.0154 21.6494 15.0154C22.1271 15.0154 22.5404 15.1026 22.8893 15.277C23.2381 15.4438 23.5263 15.6448 23.7538 15.8799L22.8779 16.8809C22.7565 16.7444 22.5897 16.6268 22.3774 16.5283C22.1726 16.4221 21.9641 16.369 21.7518 16.369C21.4863 16.369 21.2437 16.441 21.0238 16.5851C20.8038 16.7216 20.6256 16.9567 20.4891 17.2904C20.3602 17.6165 20.2844 18.0601 20.2616 18.6212C20.4512 18.3786 20.6825 18.1928 20.9555 18.0639C21.2361 17.9274 21.4863 17.8591 21.7063 17.8591C22.3281 17.8591 22.84 18.0411 23.2419 18.4051C23.6514 18.7615 23.8561 19.3227 23.8561 20.0886C23.8561 20.5891 23.7462 21.0214 23.5263 21.3854C23.3063 21.7418 23.0144 22.0186 22.6504 22.2157C22.294 22.4129 21.8958 22.5115 21.456 22.5115ZM27.2723 22.5115C26.4988 22.5115 25.8731 22.1892 25.3954 21.5446C24.9252 20.9 24.6901 19.9635 24.6901 18.735C24.6901 17.5065 24.9252 16.5813 25.3954 15.9595C25.8731 15.3301 26.4988 15.0154 27.2723 15.0154C28.0458 15.0154 28.6676 15.3301 29.1378 15.9595C29.6155 16.5813 29.8544 17.5065 29.8544 18.735C29.8544 19.9635 29.6155 20.9 29.1378 21.5446C28.6676 22.1892 28.0458 22.5115 27.2723 22.5115ZM27.2723 21.2147C27.4619 21.2147 27.6325 21.1465 27.7841 21.01C27.9358 20.8659 28.0534 20.6157 28.1368 20.2592C28.2278 19.9028 28.2733 19.3947 28.2733 18.735C28.2733 18.0752 28.2278 17.571 28.1368 17.2221C28.0534 16.8733 27.9358 16.6344 27.7841 16.5055C27.6325 16.3766 27.4619 16.3121 27.2723 16.3121C27.0903 16.3121 26.9234 16.3766 26.7718 16.5055C26.6201 16.6344 26.4988 16.8733 26.4078 17.2221C26.3168 17.571 26.2713 18.0752 26.2713 18.735C26.2713 19.3947 26.3168 19.9028 26.4078 20.2592C26.4988 20.6157 26.6201 20.8659 26.7718 21.01C26.9234 21.1465 27.0903 21.2147 27.2723 21.2147Z" fill="white"/>
<path d="M31.9812 14.91C32.7061 14.91 33.2937 14.3224 33.2937 13.5975C33.2937 12.8727 32.7061 12.285 31.9812 12.285C31.2564 12.285 30.6687 12.8727 30.6687 13.5975C30.6687 14.3224 31.2564 14.91 31.9812 14.91Z" stroke="white" stroke-width="0.875" stroke-miterlimit="10"/>
<path d="M20.1425 29.3212C13.5975 29.1287 8.42624 26.6962 8.42624 23.7299C8.42624 22.6274 9.14374 21.5949 10.3775 20.7287" stroke="white" stroke-width="1.75" stroke-miterlimit="10" stroke-linecap="round"/>
<path d="M32.0337 21.0436C33.0225 21.8399 33.5825 22.7586 33.5825 23.7386C33.5825 26.3024 29.1112 28.6649 23.8262 29.3299" stroke="white" stroke-width="1.75" stroke-miterlimit="10" stroke-linecap="round"/>
<path d="M18.1125 26.8011L20.1425 29.3211L18.1125 31.4648" stroke="white" stroke-width="1.75" stroke-linecap="round" stroke-linejoin="round"/>
</svg>
