<?xml version="1.0" encoding="utf-8"?>
<!-- Generator: Adobe Illustrator 27.0.0, SVG Export Plug-In . SVG Version: 6.00 Build 0)  -->
<svg version="1.1" id="Layer_1" xmlns="http://www.w3.org/2000/svg" xmlns:xlink="http://www.w3.org/1999/xlink" x="0px" y="0px"
	 viewBox="0 0 140 143" style="enable-background:new 0 0 140 143;" xml:space="preserve">
<style type="text/css">
	.st0{fill:#E64A55;}
	.st1{fill:#FFFFFF;}
</style>
<path class="st0" d="M127.86,0H12.14C5.43,0,0,5.43,0,12.13v91.23c0,6.7,5.43,12.13,12.14,12.13h39.52l14.67,25.39
	c1.63,2.83,5.72,2.83,7.35,0l14.67-25.39h39.52c6.7,0,12.14-5.43,12.14-12.13V12.13C140,5.43,134.57,0,127.86,0z M108.45,60.06
	c-4.06,6.69-9.29,12.45-15.02,17.7c-7.54,6.89-15.32,13.51-23,20.25c-0.1,0.08-0.23,0.13-0.44,0.24c-2.45-2.09-4.91-4.2-7.39-6.3
	c-7.23-6.1-14.43-12.24-20.91-19.17c-4.92-5.26-9.59-10.72-12.46-17.42c-3.54-8.25-3.82-16.45,1.17-24.27
	c8.96-14.04,29.61-14.12,38.78-0.22c0.26,0.4,0.53,0.79,0.9,1.34c3.54-5.81,8.41-9.51,14.84-11.1c13.19-3.27,26.65,6.02,28.3,19.49
	C114.08,47.71,112.07,54.08,108.45,60.06z"/>
<path class="st1" d="M108.45,60.06c-4.06,6.69-9.29,12.45-15.02,17.7c-7.54,6.89-15.32,13.51-23,20.25
	c-0.1,0.08-0.23,0.13-0.44,0.24c-2.45-2.09-4.91-4.2-7.39-6.3c-7.23-6.1-14.43-12.24-20.91-19.17c-4.92-5.26-9.59-10.72-12.46-17.42
	c-3.54-8.25-3.82-16.45,1.17-24.27c8.96-14.04,29.61-14.12,38.78-0.22c0.26,0.4,0.53,0.79,0.9,1.34c3.54-5.81,8.41-9.51,14.84-11.1
	c13.19-3.27,26.65,6.02,28.3,19.49C114.08,47.71,112.07,54.08,108.45,60.06z"/>
</svg>
