<svg width="30" height="30" viewBox="0 0 30 30" fill="none" xmlns="http://www.w3.org/2000/svg">
<path d="M12.7846 16.9C12.7846 18.1 12.1385 18.8 10.8462 18.8H10.1077V20.6H9V15H10.8462C12.1385 15 12.7846 15.7 12.7846 16.9ZM11.4923 16.9C11.4923 16.3 11.3077 16 10.7538 16H10.1077V17.7H10.6615C11.3077 17.8 11.4923 17.5 11.4923 16.9Z" fill="#0072DB"/>
<path d="M17.4 17.8C17.4 19.6 16.4769 20.6 15 20.6H13.1538V15H15C16.4769 15 17.4 16 17.4 17.8ZM16.1077 17.8C16.1077 16.6 15.7385 16 14.9077 16H14.2615V19.5H14.9077C15.7385 19.6 16.1077 19 16.1077 17.8Z" fill="#0072DB"/>
<path d="M18.9692 16.1V17.3H20.8154V18.3H18.9692V20.6H17.7692V15H21V16H18.9692V16.1Z" fill="#0072DB"/>
<path d="M25 7.8L20.5 3.4C20.2 3.1 19.8 3 19.5 3H6C5.2 3 4.5 3.7 4.5 4.5V25.5C4.5 26.3 5.2 27 6 27H24C24.8 27 25.5 26.3 25.5 25.5V8.9C25.5 8.5 25.3 8.1 25 7.8ZM7.5 24V6H17.5V9.5C17.5 10.3 18.2 11 19 11H22.5V24H7.5Z" fill="#0072DB"/>
</svg>
